# xmcd
#
# Track frame offsets: 
#        150
#        9593
#        33747
#        51095
#        73170
#        91681
#        110858
#        128948
#        140416
#        159259
#        176258
#        194265
#        202333
#        220382
#
# Disc length: 3208 seconds
#
# Revision: 1
# Processed by: cddbd v1.5.2PL0 Copyright (c) Steve Scherf et al.
# Submitted via: ExactAudioCopyFreeDBPlugin 1.0
#
DISCID=d00c860e
DTITLE=Janis Joplin - Piece Of My Heart: The Collection
DYEAR=2012
DGENRE=Blues
TTITLE0=Down On Me
TTITLE1=Catch Me Daddy (Live)
TTITLE2=Call On Me (Live)
TTITLE3=I Need A Man To Love
TTITLE4=Summertime (Alternate Take)
TTITLE5=Piece Of My Heart
TTITLE6=Maybe
TTITLE7=Dear Landlord
TTITLE8=One Good Man
TTITLE9=Raise Your Hand (Live)
TTITLE10=Little Girl Blue (Live)
TTITLE11=Mercedes Benz
TTITLE12=Move Over (Live)
TTITLE13=Me And Bobby McGee
EXTD=
EXTT0=
EXTT1=
EXTT2=
EXTT3=
EXTT4=
EXTT5=
EXTT6=
EXTT7=
EXTT8=
EXTT9=
EXTT10=
EXTT11=
EXTT12=
EXTT13=
PLAYORDER=
